HIERARCHY
ROOT Hips
{
	OFFSET 0.00000 0.00000 0.00000
	CHANNELS 6 Xposition Yposition Zposition Zrotation Yrotation Xrotation 
	JOINT LHipJoint
	{
		OFFSET 0 0 0
		CHANNELS 3 Zrotation Yrotation Xrotation
		JOINT LeftUpLeg
		{
			OFFSET 1.54859 -1.61379 0.86856
			CHANNELS 3 Zrotation Yrotation Xrotation
			JOINT LeftLeg
			{
				OFFSET 2.25087 -6.18423 0.00000
				CHANNELS 3 Zrotation Yrotation Xrotation
				JOINT LeftFoot
				{
					OFFSET 2.40328 -6.60297 0.00000
					CHANNELS 3 Zrotation Yrotation Xrotation
					JOINT LeftToeBase
					{
						OFFSET 0.17435 -0.47901 2.02453
						CHANNELS 3 Zrotation Yrotation Xrotation
						End Site
						{
							OFFSET 0.00000 -0.00000 1.04844
						}
					}
				}
			}
		}
	}
	JOINT RHipJoint
	{
		OFFSET 0 0 0
		CHANNELS 3 Zrotation Yrotation Xrotation
		JOINT RightUpLeg
		{
			OFFSET -1.54669 -1.61379 0.86856
			CHANNELS 3 Zrotation Yrotation Xrotation
			JOINT RightLeg
			{
				OFFSET -2.28132 -6.26789 0.00000
				CHANNELS 3 Zrotation Yrotation Xrotation
				JOINT RightFoot
				{
					OFFSET -2.51636 -6.91365 0.00000
					CHANNELS 3 Zrotation Yrotation Xrotation
					JOINT RightToeBase
					{
						OFFSET -0.15124 -0.41552 2.21090
						CHANNELS 3 Zrotation Yrotation Xrotation
						End Site
						{
							OFFSET -0.00000 -0.00000 1.13399
						}
					}
				}
			}
		}
	}
	JOINT LowerBack
	{
		OFFSET 0 0 0
		CHANNELS 3 Zrotation Yrotation Xrotation
		JOINT Spine
		{
			OFFSET -0.04287 2.26161 -0.25690
			CHANNELS 3 Zrotation Yrotation Xrotation
			JOINT Spine1
			{
				OFFSET 0.02248 2.28395 -0.10140
				CHANNELS 3 Zrotation Yrotation Xrotation
				JOINT Neck
				{
					OFFSET 0 0 0
					CHANNELS 3 Zrotation Yrotation Xrotation
					JOINT Neck1
					{
						OFFSET -0.11644 1.38496 0.11345
						CHANNELS 3 Zrotation Yrotation Xrotation
						JOINT Head
						{
							OFFSET 0.29383 1.36600 0.06642
							CHANNELS 3 Zrotation Yrotation Xrotation
							End Site
							{
								OFFSET 0.11075 1.41395 -0.00294
							}
						}
					}
				}
				JOINT LeftShoulder
				{
					OFFSET 0 0 0
					CHANNELS 3 Zrotation Yrotation Xrotation
					JOINT LeftArm
					{
						OFFSET 3.51628 0.59542 -0.30346
						CHANNELS 3 Zrotation Yrotation Xrotation
						JOINT LeftForeArm
						{
							OFFSET 4.76405 -0.00000 0.00000
							CHANNELS 3 Zrotation Yrotation Xrotation
							JOINT LeftHand
							{
								OFFSET 3.13759 -0.00000 -0.00000
								CHANNELS 3 Zrotation Yrotation Xrotation
								JOINT LeftFingerBase
								{
									OFFSET 0 0 0
									CHANNELS 3 Zrotation Yrotation Xrotation
									JOINT LeftHandIndex1
									{
										OFFSET 0.73226 -0.00000 -0.00000
										CHANNELS 3 Zrotation Yrotation Xrotation
										End Site
										{
											OFFSET 0.59037 -0.00000 -0.00000
										}
									}
								}
								JOINT LThumb
								{
									OFFSET 0 0 0
									CHANNELS 3 Zrotation Yrotation Xrotation
									End Site
									{
										OFFSET 0.59938 -0.00000 0.59938
									}
								}
							}
						}
					}
				}
				JOINT RightShoulder
				{
					OFFSET 0 0 0
					CHANNELS 3 Zrotation Yrotation Xrotation
					JOINT RightArm
					{
						OFFSET -3.30990 0.84213 -0.36430
						CHANNELS 3 Zrotation Yrotation Xrotation
						JOINT RightForeArm
						{
							OFFSET -5.10161 -0.00000 -0.00000
							CHANNELS 3 Zrotation Yrotation Xrotation
							JOINT RightHand
							{
								OFFSET -3.23267 -0.00000 -0.00000
								CHANNELS 3 Zrotation Yrotation Xrotation
								JOINT RightFingerBase
								{
									OFFSET 0 0 0
									CHANNELS 3 Zrotation Yrotation Xrotation
									JOINT RightHandIndex1
									{
										OFFSET -0.70200 -0.00000 -0.00000
										CHANNELS 3 Zrotation Yrotation Xrotation
										End Site
										{
											OFFSET -0.56597 -0.00000 -0.00000
										}
									}
								}
								JOINT RThumb
								{
									OFFSET 0 0 0
									CHANNELS 3 Zrotation Yrotation Xrotation
									End Site
									{
										OFFSET -0.57461 -0.00000 0.57461
									}
								}
							}
						}
					}
				}
			}
		}
	}
}
MOTION
Frames: 16
Frame Time: .0083333
-1.5634 15.012 5.5496 0 0 0 0 0 0 -21 0 0 0 0 0 0 0 0 0 0 0 0 0 0 21 0 0 0 0 0 0 0 0 0 0 0 0 0 0 0 0 0 0 0 0 0 0 -16 0 0 21 0 0 11 0 0 0 -8 0 0 0 0 0 0 0 0 0 0 0 0 0 0 0 0 0 0 0 0 8 0 0 0 0 0 0 0 0 0 0 0 0 0 0 0 0 0
-1.5634 15.0120 5.5496 -176.3890 -9.7253 -176.4590 0.0000 0.0000 0.0000 -3.1290 5.3089 -36.0770 7.6158 15.8293 51.1667 0.0821 -14.0004 -10.7771 3.0009 -10.6965 -31.2630 0.0000 0.0000 0.0000 10.1240 -12.4043 -41.0741 -11.0655 -17.9670 62.9942 -0.9873 0.3779 -18.6623 -0.1349 2.3672 -6.5217 -5.7682 2.3422 25.1077 2.2962 0.1229 8.1520 5.8601 -0.6978 -4.9686 -14.7296 -7.3818 -5.9215 28.4017 -9.3560 -21.2392 11.8626 -6.6405 -2.6806 0.0000 -0.0000 0.0000 -68.0289 18.3309 51.1157 84.4179 -59.8819 -55.1677 -0.0000 0.0000 -24.4688 24.5135 19.4140 8.6189 -7.1250 0.0000 -0.0000 -3.8392 51.1139 -0.5790 0.0000 -0.0000 0.0000 68.9533 6.9257 -1.1540 -72.1736 58.7645 -44.6260 0.0000 -0.0000 -28.4210 -48.1545 38.9474 -35.0664 7.1250 -0.0000 -0.0000 -6.4222 20.2206 -8.2865
-1.5138 14.8906 5.6067 -176.0830 -9.7441 -176.2970 0.0000 0.0000 0.0000 -2.3255 5.4540 -37.6302 8.0602 16.1634 52.7794 0.3164 -12.7322 -12.6067 5.6057 -14.0350 -43.3778 0.0000 0.0000 0.0000 9.6174 -12.1511 -41.9065 -11.3113 -18.0841 63.7883 -0.9724 -0.7844 -18.9343 -0.0479 1.4119 -3.8830 -5.7189 2.6906 26.3991 2.3381 0.3916 8.3677 5.8261 -0.6096 -5.4020 -15.8625 -7.4322 -5.7989 29.6252 -9.3708 -22.9376 12.6901 -6.8652 -3.0103 0.0000 -0.0000 0.0000 -66.8840 18.3238 51.2790 87.6464 -59.9791 -57.9619 -0.0000 0.0000 -24.6135 24.4158 19.0647 8.4342 -7.1250 0.0000 -0.0000 -3.8497 50.7237 -0.5437 0.0000 -0.0000 0.0000 67.9956 6.8577 -3.5406 -74.9967 59.1321 -47.0446 0.0000 -0.0000 -30.0096 -48.9541 38.9956 -35.8561 7.1250 -0.0000 -0.0000 -6.7887 20.6802 -8.7961
-1.4626 14.7664 5.6610 -175.9760 -9.7382 -176.0710 0.0000 0.0000 0.0000 -1.8001 5.7372 -39.3646 8.5966 16.5410 54.6843 0.3652 -12.3436 -12.9342 5.9090 -14.3395 -44.6153 0.0000 0.0000 0.0000 8.9179 -12.1621 -42.8687 -11.5430 -18.1907 64.5326 -0.9235 -2.3607 -19.1511 -0.0348 1.2045 -3.3117 -5.9226 3.0504 27.5702 2.3351 0.6081 8.5986 5.8964 -0.5520 -5.7446 -16.6801 -7.4218 -5.7544 30.6546 -9.3309 -24.3911 13.3983 -7.0524 -3.3046 -0.0000 0.0000 0.0000 -65.9192 18.2780 51.0311 90.8426 -59.9973 -60.7297 -0.0000 0.0000 -24.6158 23.7631 18.9019 8.1173 -7.1250 0.0000 -0.0000 -4.4564 50.4396 -0.5985 -0.0000 0.0000 0.0000 66.9697 6.7785 -5.7491 -77.5563 59.4067 -49.2449 0.0000 -0.0000 -31.5703 -49.6851 39.3772 -36.7851 7.1250 -0.0000 -0.0000 -6.9923 21.4544 -9.1166
-1.4076 14.6246 5.7123 -175.8130 -9.7541 -175.7570 0.0000 0.0000 0.0000 -1.2262 6.0573 -41.1965 9.1151 16.8812 56.4874 0.3673 -12.5361 -13.0420 6.0713 -14.4971 -45.2674 0.0000 0.0000 0.0000 8.3918 -12.4525 -43.8742 -11.8006 -18.3051 65.3554 -0.8544 -4.2503 -19.5010 -0.1134 2.1707 -5.9778 -6.1767 3.3602 28.5145 2.3405 0.7545 8.8624 6.0193 -0.5354 -5.9253 -17.3461 -7.3362 -5.6272 31.5186 -9.2209 -25.9481 14.0725 -7.2268 -3.6920 0.0000 0.0000 0.0000 -65.1479 18.1696 50.3321 93.8770 -59.9431 -63.3569 -0.0000 0.0000 -24.5454 22.9722 18.7483 7.7586 -7.1250 0.0000 -0.0000 -5.1967 50.1452 -0.6606 0.0000 0.0000 0.0000 66.0095 6.9003 -7.8013 -79.5428 59.5827 -50.9565 0.0000 -0.0000 -33.1214 -50.7786 39.3673 -37.8516 7.1250 -0.0000 -0.0000 -7.5168 22.0303 -9.8507
-1.3472 14.5037 5.7581 -175.4840 -9.7548 -175.4110 0.0000 0.0000 0.0000 -0.5236 6.4658 -43.0653 9.6404 17.2026 58.2796 0.3648 -12.9831 -13.2186 6.4439 -14.8451 -46.7381 0.0000 0.0000 0.0000 7.6413 -12.0916 -44.6669 -11.8959 -18.3463 65.6584 -0.8774 -4.5776 -19.9239 -0.0000 -0.0226 0.0621 -6.2574 3.6820 29.3462 2.3401 0.9766 9.1025 6.0043 -0.4775 -6.0829 -15.8646 -7.1078 -5.5248 31.3183 -9.0808 -27.7149 13.9575 -7.5307 -4.4101 -0.0000 0.0000 0.0000 -64.2742 17.9004 49.6706 96.6571 -59.8319 -65.7619 -0.0000 0.0000 -24.5990 22.4923 18.7518 7.5818 -7.1250 0.0000 -0.0000 -5.6686 50.0703 -0.7105 -0.0000 0.0000 0.0000 65.3407 6.8837 -10.0243 -81.3909 59.7181 -52.5513 0.0000 -0.0000 -34.7981 -51.8105 39.2923 -38.8360 7.1250 -0.0000 -0.0000 -8.0369 22.5228 -10.5791
-1.2864 14.4348 5.8000 -175.2480 -9.7652 -175.0600 0.0000 0.0000 0.0000 -0.0759 7.0262 -44.7573 10.0991 17.4652 59.8191 0.3713 -13.3356 -13.4463 6.8234 -15.1813 -48.2031 0.0000 0.0000 0.0000 6.9257 -11.9899 -45.8251 -12.0905 -18.4286 66.2754 -0.8604 -5.2903 -20.2141 -0.0113 -0.6862 1.8858 -6.4162 4.0800 30.0760 2.3169 1.2686 9.3865 5.9785 -0.3944 -6.1492 -15.0407 -6.9230 -5.2400 31.4075 -8.9641 -29.5521 14.1335 -7.8296 -5.1200 0.0000 -0.0000 0.0000 -63.3349 17.3247 49.0461 99.2546 -59.6739 -68.0060 -0.0000 0.0000 -24.7606 21.9851 19.0067 7.4905 -7.1250 0.0000 -0.0000 -6.2350 50.2555 -0.8104 0.0000 -0.0000 0.0000 64.8248 6.6773 -12.3187 -83.3321 59.8313 -54.2287 0.0000 -0.0000 -36.6173 -52.5990 39.6767 -39.8630 7.1250 -0.0000 -0.0000 -8.2544 23.3583 -10.9326
-1.2149 14.3001 5.8339 -175.1410 -9.7308 -174.5610 0.0000 0.0000 0.0000 0.3885 7.7426 -46.8347 10.6126 17.7402 61.5170 0.2189 -14.3937 -12.4683 5.7993 -14.2310 -44.1708 0.0000 0.0000 0.0000 5.6812 -11.3487 -46.4947 -12.0075 -18.3938 66.0126 -0.7933 -6.0561 -20.0879 -0.0852 -1.8825 5.1812 -6.7856 4.5246 30.5637 2.2919 1.5817 9.6797 6.0586 -0.3030 -6.0962 -15.2965 -6.8186 -4.9074 31.9184 -8.8824 -31.2013 14.6927 -8.0514 -5.6674 0.0000 0.0000 0.0000 -62.5285 16.5685 48.1879 101.5528 -59.4896 -69.9878 -0.0000 0.0000 -24.7268 21.2795 19.0679 7.2511 -7.1250 0.0000 -0.0000 -6.9430 50.2041 -0.8944 0.0000 0.0000 0.0000 64.2787 6.3566 -14.4333 -85.1537 59.9111 -55.8042 0.0000 -0.0000 -38.5348 -53.6313 39.9651 -41.0956 7.1250 -0.0000 -0.0000 -8.6200 24.2443 -11.4916
-1.1432 14.1759 5.8633 -175.0890 -9.5521 -174.0730 0.0000 0.0000 0.0000 0.8623 8.4339 -48.6893 11.0968 17.9821 63.0956 0.1554 -14.8213 -12.0722 6.0566 -14.4830 -45.2085 0.0000 0.0000 0.0000 4.4405 -10.8751 -47.1730 -11.9620 -18.3745 65.8684 -0.7183 -6.7280 -19.8413 -0.1315 -2.3372 6.4384 -7.1872 5.0771 31.2928 2.3858 1.9652 9.6457 5.7870 -0.1989 -5.9873 -15.8335 -7.0019 -4.6365 33.0188 -9.1652 -32.7198 15.5030 -8.4784 -5.9821 -0.0000 -0.0000 0.0000 -61.5252 15.5824 47.2675 103.4733 -59.3028 -71.6409 -0.0000 0.0000 -24.6598 20.8265 18.9668 7.0480 -7.1250 0.0000 -0.0000 -7.3557 50.0255 -0.9156 -0.0000 -0.0000 0.0000 64.1912 5.8967 -16.5301 -86.7229 59.9594 -57.1623 0.0000 -0.0000 -40.3630 -54.8088 40.0796 -42.3966 7.1250 -0.0000 -0.0000 -9.1222 25.0570 -12.2350
-1.0682 14.0682 5.8889 -175.0140 -9.3190 -173.5930 0.0000 0.0000 0.0000 1.3920 9.0647 -50.3575 11.5728 18.2042 64.6283 0.0867 -15.4703 -11.7761 6.0412 -14.4682 -45.1469 0.0000 0.0000 0.0000 3.3603 -10.5519 -47.8253 -11.8864 -18.3422 65.6283 -0.6213 -7.4955 -19.4654 -0.0808 -1.8331 5.0446 -7.4512 5.6456 31.7098 2.0400 2.4330 9.9164 5.3893 -0.0295 -5.9050 -14.1361 -6.7902 -4.5478 32.8698 -9.0285 -34.2069 15.4235 -8.8239 -6.6900 0.0000 0.0000 0.0000 -60.1425 14.2147 46.3044 104.9608 -59.1371 -72.9189 -0.0000 0.0000 -24.8258 20.6467 19.1578 7.0492 -7.1250 0.0000 -0.0000 -7.5872 50.1951 -0.9765 0.0000 0.0000 0.0000 64.9664 5.3448 -18.6613 -87.9169 59.9836 -58.1961 0.0000 -0.0000 -41.7036 -55.8752 40.2406 -43.6288 7.1250 -0.0000 -0.0000 -9.5496 25.8666 -12.8810
-0.9890 13.9584 5.9084 -174.9490 -9.1287 -173.1520 0.0000 0.0000 0.0000 1.9024 9.6435 -51.8640 12.0177 18.3981 66.0448 0.0546 -15.9541 -11.7694 6.1267 -14.5500 -45.4883 0.0000 0.0000 0.0000 2.2027 -10.2499 -48.3168 -11.7686 -18.2911 65.2533 -0.5219 -8.3104 -19.1267 -0.0338 -1.1867 3.2627 -7.8220 6.1825 32.1453 1.7605 2.8373 10.1217 5.1359 0.1163 -5.8944 -14.0718 -6.8096 -4.1778 33.6377 -9.0838 -35.4735 16.0363 -9.1523 -7.1063 -0.0000 -0.0000 0.0000 -59.1043 12.7551 45.0823 105.8954 -59.0234 -73.7207 -0.0000 0.0000 -25.1205 20.3451 19.4686 7.0453 -7.1250 0.0000 -0.0000 -7.9755 50.4680 -1.0807 -0.0000 -0.0000 0.0000 65.7227 4.6612 -20.3137 -88.6578 59.9932 -58.8376 0.0000 -0.0000 -42.6991 -56.7879 40.2418 -44.6182 7.1250 -0.0000 -0.0000 -9.9736 26.4376 -13.5084
-0.9040 13.8395 5.9200 -174.8730 -8.8507 -172.8760 0.0000 0.0000 0.0000 2.4319 10.4104 -53.1398 12.4492 18.5741 67.4056 0.0555 -16.4335 -12.1010 6.3965 -14.8019 -46.5530 0.0000 0.0000 0.0000 0.9114 -9.8066 -48.3677 -11.5540 -18.1957 64.5678 -0.4504 -8.9158 -18.9186 -0.0428 -1.3348 3.6706 -8.7157 6.7543 32.5991 1.9240 3.1577 10.2704 5.6491 0.2144 -5.9907 -13.6871 -6.6864 -3.6795 33.8233 -9.0154 -36.5439 16.3544 -9.3695 -7.6198 0.0000 0.0000 0.0000 -59.1411 11.6330 43.4384 106.3243 -58.9688 -74.0883 -0.0000 0.0000 -25.3577 20.5955 19.5198 7.1567 -7.1250 0.0000 -0.0000 -7.7462 50.5622 -1.0673 0.0000 0.0000 0.0000 65.6696 3.8613 -20.9676 -88.8721 59.9952 -59.0232 0.0000 -0.0000 -43.5777 -57.6720 40.1503 -45.5353 7.1250 -0.0000 -0.0000 -10.4258 26.9129 -14.1713
-0.8152 13.7163 5.9264 -174.6430 -8.6374 -172.6900 0.0000 0.0000 0.0000 3.1831 11.1855 -54.3417 12.8793 18.7381 68.7501 0.0709 -16.9549 -12.5995 6.6903 -15.0655 -47.6932 0.0000 0.0000 0.0000 -0.3191 -9.3372 -48.0913 -11.2352 -18.0483 63.5432 -0.4196 -9.1816 -18.8401 -0.1539 -2.5275 6.9660 -9.7944 7.2448 32.9949 2.3805 3.3542 10.3805 6.6125 0.2543 -6.1248 -14.7135 -6.4970 -2.8217 34.6284 -8.7833 -37.2735 17.2619 -9.3634 -7.9562 -0.0000 -0.0000 0.0000 -59.9252 10.6482 41.5095 106.0399 -59.0052 -73.8445 -0.0000 0.0000 -25.4695 21.5328 19.4135 7.4717 -7.1250 0.0000 -0.0000 -6.7946 50.6066 -0.9425 -0.0000 -0.0000 0.0000 65.2429 3.1152 -20.8530 -88.4807 59.9913 -58.6843 0.0000 -0.0000 -44.4648 -58.3516 40.1810 -46.3094 7.1250 -0.0000 -0.0000 -10.7282 27.3857 -14.6285
-0.7251 13.5912 5.9283 -174.3050 -8.4846 -172.5760 0.0000 0.0000 0.0000 4.1361 11.8458 -55.4580 13.3208 18.8949 70.1188 0.0663 -17.4393 -12.8819 6.8350 -15.1914 -48.2475 0.0000 0.0000 0.0000 -1.3699 -9.1064 -47.6674 -10.8389 -17.8553 62.2572 -0.3793 -9.5241 -18.7375 -0.4182 -4.1510 11.5020 -10.4529 7.6872 33.3480 2.5776 3.5753 10.5856 7.0704 0.2948 -6.1107 -14.0518 -6.2286 -2.4104 34.8081 -8.4935 -37.9484 17.5117 -9.4758 -8.4238 0.0000 0.0000 0.0000 -60.3063 8.8215 39.6074 104.6732 -59.1706 -72.6720 -0.0000 0.0000 -25.4862 22.1491 19.5400 7.7529 -7.1250 0.0000 -0.0000 -6.2238 50.8422 -0.8989 0.0000 0.0000 0.0000 65.5767 2.4538 -20.8076 -87.9371 59.9839 -58.2135 0.0000 -0.0000 -45.3878 -58.6566 40.5811 -46.8860 7.1250 -0.0000 -0.0000 -10.6867 27.9734 -14.6146
-0.6321 13.4753 5.9272 -174.0140 -8.3279 -172.6200 0.0000 0.0000 0.0000 5.0810 12.4455 -56.2818 13.7447 19.0348 71.4233 0.0433 -17.8140 -12.9249 6.9582 -15.2966 -48.7159 0.0000 0.0000 0.0000 -2.2533 -9.1314 -47.1174 -10.4381 -17.6490 60.9430 -0.2640 -10.5209 -18.4989 -0.5415 -4.7146 13.0964 -10.6865 8.1824 33.8509 2.4176 3.8840 10.8549 6.8699 0.3507 -5.9184 -14.6696 -6.6272 -2.1445 36.7132 -9.0149 -38.6301 18.6775 -10.0666 -8.2842 -0.0000 0.0000 0.0000 -60.1540 5.8948 37.7485 102.1402 -59.4357 -70.4938 -0.0000 0.0000 -25.3965 22.5920 19.8369 8.0370 -7.1250 0.0000 -0.0000 -5.8699 51.2295 -0.9034 -0.0000 0.0000 0.0000 66.9134 1.8513 -20.9311 -87.4353 59.9751 -57.7791 0.0000 -0.0000 -45.9663 -59.2928 41.0790 -47.8908 7.1250 -0.0000 -0.0000 -10.7475 28.8702 -14.7641
-0.5460 13.3611 5.9248 -173.7340 -8.3388 -172.6690 0.0000 0.0000 0.0000 6.0409 12.7982 -57.0526 14.1475 19.1582 72.6545 0.0037 -18.2031 -12.8344 7.0386 -15.3643 -49.0200 0.0000 0.0000 0.0000 -3.1761 -9.2650 -46.4330 -10.0270 -17.4250 59.5786 -0.1709 -11.4582 -18.5161 -0.5535 -4.7659 13.2422 -10.6214 8.5590 34.2769 2.2572 4.1553 11.2195 6.5465 0.3925 -5.7009 -14.5014 -6.5943 -1.8928 36.8926 -8.9185 -39.0696 18.9217 -10.1377 -8.5306 -0.0000 -0.0000 0.0000 -60.1639 2.3247 36.0596 98.3613 -59.7342 -67.2346 -0.0000 0.0000 -24.9787 23.2603 20.0733 8.3925 -7.1250 0.0000 -0.0000 -5.2702 51.5951 -0.8580 -0.0000 -0.0000 0.0000 68.3114 1.2874 -20.8253 -86.6551 59.9577 -57.1036 0.0000 -0.0000 -46.5085 -59.7689 41.1504 -48.4728 7.1250 -0.0000 -0.0000 -10.9321 29.2559 -15.0505
